<?xml version="1.0" encoding="utf-8"?>
<!-- Generator: Adobe Illustrator 16.0.0, SVG Export Plug-In . SVG Version: 6.00 Build 0)  -->
<!DOCTYPE svg PUBLIC "-//W3C//DTD SVG 1.1//EN" "http://www.w3.org/Graphics/SVG/1.1/DTD/svg11.dtd">
<svg version="1.1" xmlns="http://www.w3.org/2000/svg" xmlns:xlink="http://www.w3.org/1999/xlink" x="0px" y="0px" width="1200px"
	 height="800px" viewBox="0 0 1200 800" enable-background="new 0 0 1200 800" xml:space="preserve">
<pattern  x="-2900" y="-200" width="1200" height="1200" patternUnits="userSpaceOnUse" id="New_Pattern" viewBox="0 -1200 1200 1200" overflow="visible">
	<g>
		<polygon fill="none" points="0,-1200 1200,-1200 1200,0 0,0 		"/>
		<polygon points="286.826,-1113 267.867,-1113 267.867,-1110 286.826,-1110 		"/>
		<polygon points="210.99,-1113 192.031,-1113 192.031,-1110 210.99,-1110 		"/>
		<polygon points="590.168,-1113 571.209,-1113 571.209,-1110 590.168,-1110 		"/>
		<polygon points="1045.182,-1113 1026.223,-1113 1026.223,-1110 1045.182,-1110 		"/>
		<polygon points="969.346,-1113 950.387,-1113 950.387,-1110 969.346,-1110 		"/>
		<polygon points="514.333,-1113 495.374,-1113 495.374,-1110 514.333,-1110 		"/>
		<polygon points="476.415,-1113 457.456,-1113 457.456,-1110 476.415,-1110 		"/>
		<polygon points="817.675,-1113 798.716,-1113 798.716,-1110 817.675,-1110 		"/>
		<polygon points="248.908,-1113 229.949,-1113 229.949,-1110 248.908,-1110 		"/>
		<polygon points="552.25,-1113 533.292,-1113 533.292,-1110 552.25,-1110 		"/>
		<polygon points="1007.264,-1113 988.305,-1113 988.305,-1110 1007.264,-1110 		"/>
		<polygon points="855.593,-1113 836.634,-1113 836.634,-1110 855.593,-1110 		"/>
		<polygon points="59.319,-1113 40.36,-1113 40.36,-1110 59.319,-1110 		"/>
		<polygon points="1158.935,-1113 1139.976,-1113 1139.976,-1110 1158.935,-1110 		"/>
		<polygon points="628.086,-1113 609.127,-1113 609.127,-1110 628.086,-1110 		"/>
		<polygon points="703.922,-1113 684.963,-1113 684.963,-1110 703.922,-1110 		"/>
		<polygon points="400.579,-1113 381.62,-1113 381.62,-1110 400.579,-1110 		"/>
		<polygon points="21.401,-1113 3.147,-1113 3.147,-1110 21.401,-1110 		"/>
		<polygon points="666.004,-1113 647.045,-1113 647.045,-1110 666.004,-1110 		"/>
		<polygon points="1177.894,-1110 1196.853,-1110 1196.853,-1113 1177.894,-1113 		"/>
		<polygon points="893.511,-1113 874.552,-1113 874.552,-1110 893.511,-1110 		"/>
		<polygon points="931.428,-1113 912.469,-1113 912.469,-1110 931.428,-1110 		"/>
		<polygon points="135.154,-1113 116.195,-1113 116.195,-1110 135.154,-1110 		"/>
		<polygon points="741.839,-1113 722.881,-1113 722.881,-1110 741.839,-1110 		"/>
		<polygon points="173.072,-1113 154.113,-1113 154.113,-1110 173.072,-1110 		"/>
		<polygon points="1083.099,-1113 1064.14,-1113 1064.14,-1110 1083.099,-1110 		"/>
		<polygon points="362.661,-1113 343.703,-1113 343.703,-1110 362.661,-1110 		"/>
		<polygon points="324.744,-1113 305.785,-1113 305.785,-1110 324.744,-1110 		"/>
		<polygon points="647.045,-933 666.004,-933 666.004,-936 647.045,-936 		"/>
		<polygon points="609.127,-933 628.086,-933 628.086,-936 609.127,-936 		"/>
		<polygon points="684.963,-933 703.922,-933 703.922,-936 684.963,-936 		"/>
		<polygon points="722.881,-933 741.839,-933 741.839,-936 722.881,-936 		"/>
		<polygon points="495.374,-933 514.333,-933 514.333,-936 495.374,-936 		"/>
		<polygon points="533.292,-933 552.25,-933 552.25,-936 533.292,-936 		"/>
		<polygon points="419.538,-933 438.497,-933 438.497,-936 419.538,-936 		"/>
		<polygon points="798.716,-933 817.675,-933 817.675,-936 798.716,-936 		"/>
		<polygon points="457.456,-933 476.415,-933 476.415,-936 457.456,-936 		"/>
		<polygon points="571.209,-933 590.168,-933 590.168,-936 571.209,-936 		"/>
		<polygon points="760.798,-933 779.757,-933 779.757,-936 760.798,-936 		"/>
		<polygon points="874.552,-933 893.511,-933 893.511,-936 874.552,-936 		"/>
		<polygon points="836.634,-933 855.593,-933 855.593,-936 836.634,-936 		"/>
		<polygon points="229.949,-933 248.908,-933 248.908,-936 229.949,-936 		"/>
		<polygon points="116.195,-933 135.154,-933 135.154,-936 116.195,-936 		"/>
		<polygon points="40.36,-933 59.319,-933 59.319,-936 40.36,-936 		"/>
		<polygon points="154.113,-933 173.072,-933 173.072,-936 154.113,-936 		"/>
		<polygon points="1064.14,-933 1083.099,-933 1083.099,-936 1064.14,-936 		"/>
		<polygon points="267.867,-933 286.826,-933 286.826,-936 267.867,-936 		"/>
		<polygon points="950.387,-933 969.346,-933 969.346,-936 950.387,-936 		"/>
		<polygon points="1139.976,-933 1158.935,-933 1158.935,-936 1139.976,-936 		"/>
		<polygon points="1026.223,-933 1045.182,-933 1045.182,-936 1026.223,-936 		"/>
		<polygon points="78.278,-933 97.236,-933 97.236,-936 78.278,-936 		"/>
		<polygon points="988.305,-933 1007.264,-933 1007.264,-936 988.305,-936 		"/>
		<polygon points="192.031,-933 210.99,-933 210.99,-936 192.031,-936 		"/>
		<polygon points="305.785,-933 324.744,-933 324.744,-936 305.785,-936 		"/>
		<polygon points="1102.058,-933 1121.017,-933 1121.017,-936 1102.058,-936 		"/>
		<polygon points="21.401,-933 21.401,-936 3.147,-936 3.147,-933 		"/>
		<polygon points="1196.853,-936 1177.894,-936 1177.894,-933 1196.853,-933 		"/>
		<polygon points="343.703,-933 362.661,-933 362.661,-936 343.703,-936 		"/>
		<polygon points="381.62,-933 400.579,-933 400.579,-936 381.62,-936 		"/>
		<polygon points="912.469,-933 931.428,-933 931.428,-936 912.469,-936 		"/>
		<polygon points="609.127,-767 628.086,-767 628.086,-770 609.127,-770 		"/>
		<polygon points="78.278,-767 86.647,-767 86.647,-761.15 89.647,-761.15 89.647,-767 97.236,-767 97.236,-770 89.647,-770 
			89.647,-780.109 86.647,-780.109 86.647,-770 78.278,-770 		"/>
		<polygon points="21.401,-767 21.401,-770 3.147,-770 3.147,-767 		"/>
		<polygon points="40.36,-767 59.319,-767 59.319,-770 40.36,-770 		"/>
		<polygon points="267.867,-767 286.826,-767 286.826,-770 267.867,-770 		"/>
		<polygon points="305.785,-767 324.744,-767 324.744,-770 305.785,-770 		"/>
		<polygon points="495.374,-767 514.333,-767 514.333,-770 495.374,-770 		"/>
		<polygon points="457.456,-767 476.415,-767 476.415,-770 457.456,-770 		"/>
		<polygon points="343.703,-767 362.661,-767 362.661,-770 343.703,-770 		"/>
		<polygon points="116.195,-767 135.154,-767 135.154,-770 116.195,-770 		"/>
		<polygon points="419.538,-767 426.647,-767 426.647,-761.15 429.647,-761.15 429.647,-767 438.497,-767 438.497,-770 
			429.647,-770 429.647,-780.109 426.647,-780.109 426.647,-770 419.538,-770 		"/>
		<polygon points="571.209,-767 590.168,-767 590.168,-770 571.209,-770 		"/>
		<polygon points="229.949,-767 248.908,-767 248.908,-770 229.949,-770 		"/>
		<polygon points="192.031,-767 210.99,-767 210.99,-770 192.031,-770 		"/>
		<polygon points="154.113,-767 173.072,-767 173.072,-770 154.113,-770 		"/>
		<polygon points="647.045,-767 666.004,-767 666.004,-770 647.045,-770 		"/>
		<polygon points="533.292,-767 552.25,-767 552.25,-770 533.292,-770 		"/>
		<polygon points="381.62,-767 400.579,-767 400.579,-770 381.62,-770 		"/>
		<polygon points="1102.058,-767 1109.647,-767 1109.647,-761.15 1112.647,-761.15 1112.647,-767 1121.017,-767 1121.017,-770 
			1112.647,-770 1112.647,-780.109 1109.647,-780.109 1109.647,-770 1102.058,-770 		"/>
		<polygon points="912.469,-767 931.428,-767 931.428,-770 912.469,-770 		"/>
		<polygon points="1139.976,-767 1158.935,-767 1158.935,-770 1139.976,-770 		"/>
		<polygon points="1177.894,-767 1196.853,-767 1196.853,-770 1177.894,-770 		"/>
		<polygon points="722.881,-767 741.839,-767 741.839,-770 722.881,-770 		"/>
		<polygon points="760.798,-767 766.647,-767 766.647,-761.15 769.647,-761.15 769.647,-767 779.757,-767 779.757,-770 
			769.647,-770 769.647,-780.109 766.647,-780.109 766.647,-770 760.798,-770 		"/>
		<polygon points="836.634,-767 855.593,-767 855.593,-770 836.634,-770 		"/>
		<polygon points="798.716,-767 817.675,-767 817.675,-770 798.716,-770 		"/>
		<polygon points="874.552,-767 893.511,-767 893.511,-770 874.552,-770 		"/>
		<polygon points="684.963,-767 703.922,-767 703.922,-770 684.963,-770 		"/>
		<polygon points="1064.14,-767 1083.099,-767 1083.099,-770 1064.14,-770 		"/>
		<polygon points="988.305,-767 1007.264,-767 1007.264,-770 988.305,-770 		"/>
		<polygon points="1026.223,-767 1045.182,-767 1045.182,-770 1026.223,-770 		"/>
		<polygon points="950.387,-767 969.346,-767 969.346,-770 950.387,-770 		"/>
		<polygon points="343.703,-597 362.661,-597 362.661,-600 343.703,-600 		"/>
		<polygon points="874.552,-597 893.511,-597 893.511,-600 874.552,-600 		"/>
		<polygon points="78.278,-597 97.236,-597 97.236,-600 78.278,-600 		"/>
		<polygon points="647.045,-597 666.004,-597 666.004,-600 647.045,-600 		"/>
		<polygon points="798.716,-597 817.675,-597 817.675,-600 798.716,-600 		"/>
		<polygon points="1102.058,-597 1121.017,-597 1121.017,-600 1102.058,-600 		"/>
		<polygon points="457.456,-597 476.415,-597 476.415,-600 457.456,-600 		"/>
		<polygon points="116.195,-597 135.154,-597 135.154,-600 116.195,-600 		"/>
		<polygon points="609.127,-597 628.086,-597 628.086,-600 609.127,-600 		"/>
		<polygon points="1177.894,-597 1196.853,-597 1196.853,-600 1177.894,-600 		"/>
		<polygon points="912.469,-597 931.428,-597 931.428,-600 912.469,-600 		"/>
		<polygon points="836.634,-597 855.593,-597 855.593,-600 836.634,-600 		"/>
		<polygon points="950.387,-597 969.346,-597 969.346,-600 950.387,-600 		"/>
		<polygon points="381.62,-597 400.579,-597 400.579,-600 381.62,-600 		"/>
		<polygon points="988.305,-597 1007.264,-597 1007.264,-600 988.305,-600 		"/>
		<polygon points="419.538,-597 438.497,-597 438.497,-600 419.538,-600 		"/>
		<polygon points="684.963,-597 703.922,-597 703.922,-600 684.963,-600 		"/>
		<polygon points="229.949,-597 248.908,-597 248.908,-600 229.949,-600 		"/>
		<polygon points="571.209,-597 590.168,-597 590.168,-600 571.209,-600 		"/>
		<polygon points="305.785,-597 324.744,-597 324.744,-600 305.785,-600 		"/>
		<polygon points="40.36,-597 59.319,-597 59.319,-600 40.36,-600 		"/>
		<polygon points="722.881,-597 741.839,-597 741.839,-600 722.881,-600 		"/>
		<polygon points="267.867,-597 286.826,-597 286.826,-600 267.867,-600 		"/>
		<polygon points="154.113,-597 173.072,-597 173.072,-600 154.113,-600 		"/>
		<polygon points="533.292,-597 552.25,-597 552.25,-600 533.292,-600 		"/>
		<polygon points="760.798,-597 779.757,-597 779.757,-600 760.798,-600 		"/>
		<polygon points="1026.223,-597 1045.182,-597 1045.182,-600 1026.223,-600 		"/>
		<polygon points="495.374,-597 514.333,-597 514.333,-600 495.374,-600 		"/>
		<polygon points="1139.976,-597 1158.935,-597 1158.935,-600 1139.976,-600 		"/>
		<polygon points="192.031,-597 210.99,-597 210.99,-600 192.031,-600 		"/>
		<polygon points="1064.14,-597 1083.099,-597 1083.099,-600 1064.14,-600 		"/>
		<polygon points="21.401,-597 21.401,-600 3.147,-600 3.147,-597 		"/>
		<polygon points="1026.223,-427 1045.182,-427 1045.182,-430 1026.223,-430 		"/>
		<polygon points="154.113,-427 173.072,-427 173.072,-430 154.113,-430 		"/>
		<polygon points="647.045,-427 666.004,-427 666.004,-430 647.045,-430 		"/>
		<polygon points="684.963,-427 703.922,-427 703.922,-430 684.963,-430 		"/>
		<polygon points="722.881,-427 741.839,-427 741.839,-430 722.881,-430 		"/>
		<polygon points="950.387,-427 969.346,-427 969.346,-430 950.387,-430 		"/>
		<polygon points="988.305,-427 1007.264,-427 1007.264,-430 988.305,-430 		"/>
		<polygon points="267.867,-427 286.826,-427 286.826,-430 267.867,-430 		"/>
		<polygon points="229.949,-427 248.908,-427 248.908,-430 229.949,-430 		"/>
		<polygon points="1064.14,-427 1083.099,-427 1083.099,-430 1064.14,-430 		"/>
		<polygon points="116.195,-427 135.154,-427 135.154,-430 116.195,-430 		"/>
		<polygon points="192.031,-427 210.99,-427 210.99,-430 192.031,-430 		"/>
		<polygon points="609.127,-427 628.086,-427 628.086,-430 609.127,-430 		"/>
		<polygon points="1177.894,-427 1196.853,-427 1196.853,-430 1177.894,-430 		"/>
		<polygon points="798.716,-427 817.675,-427 817.675,-430 798.716,-430 		"/>
		<polygon points="381.62,-427 400.579,-427 400.579,-430 381.62,-430 		"/>
		<polygon points="874.552,-427 893.511,-427 893.511,-430 874.552,-430 		"/>
		<polygon points="912.469,-427 931.428,-427 931.428,-430 912.469,-430 		"/>
		<polygon points="1139.976,-427 1158.935,-427 1158.935,-430 1139.976,-430 		"/>
		<polygon points="343.703,-427 362.661,-427 362.661,-430 343.703,-430 		"/>
		<polygon points="457.456,-427 476.415,-427 476.415,-430 457.456,-430 		"/>
		<polygon points="836.634,-427 855.593,-427 855.593,-430 836.634,-430 		"/>
		<polygon points="419.538,-427 426.647,-427 426.647,-419.891 429.647,-419.891 429.647,-427 438.497,-427 438.497,-430 
			429.647,-430 429.647,-438.849 426.647,-438.849 426.647,-430 419.538,-430 		"/>
		<polygon points="1102.058,-427 1109.647,-427 1109.647,-419.891 1112.647,-419.891 1112.647,-427 1121.017,-427 1121.017,-430 
			1112.647,-430 1112.647,-438.849 1109.647,-438.849 1109.647,-430 1102.058,-430 		"/>
		<polygon points="21.401,-427 21.401,-430 3.147,-430 3.147,-427 		"/>
		<polygon points="760.798,-427 766.647,-427 766.647,-419.891 769.647,-419.891 769.647,-427 779.757,-427 779.757,-430 
			769.647,-430 769.647,-438.849 766.647,-438.849 766.647,-430 760.798,-430 		"/>
		<polygon points="305.785,-427 324.744,-427 324.744,-430 305.785,-430 		"/>
		<polygon points="533.292,-427 552.25,-427 552.25,-430 533.292,-430 		"/>
		<polygon points="571.209,-427 590.168,-427 590.168,-430 571.209,-430 		"/>
		<polygon points="495.374,-427 514.333,-427 514.333,-430 495.374,-430 		"/>
		<polygon points="40.36,-427 59.319,-427 59.319,-430 40.36,-430 		"/>
		<polygon points="78.278,-427 86.647,-427 86.647,-419.891 89.647,-419.891 89.647,-427 97.236,-427 97.236,-430 89.647,-430 
			89.647,-438.849 86.647,-438.849 86.647,-430 78.278,-430 		"/>
		<polygon points="1064.14,-258 1083.099,-258 1083.099,-261 1064.14,-261 		"/>
		<polygon points="1139.976,-258 1158.935,-258 1158.935,-261 1139.976,-261 		"/>
		<polygon points="1177.894,-258 1196.853,-258 1196.853,-261 1177.894,-261 		"/>
		<polygon points="1102.058,-258 1121.017,-258 1121.017,-261 1102.058,-261 		"/>
		<polygon points="40.36,-258 59.319,-258 59.319,-261 40.36,-261 		"/>
		<polygon points="116.195,-258 135.154,-258 135.154,-261 116.195,-261 		"/>
		<polygon points="78.278,-258 97.236,-258 97.236,-261 78.278,-261 		"/>
		<polygon points="21.401,-258 21.401,-261 3.147,-261 3.147,-258 		"/>
		<polygon points="267.867,-258 286.826,-258 286.826,-261 267.867,-261 		"/>
		<polygon points="874.552,-258 893.511,-258 893.511,-261 874.552,-261 		"/>
		<polygon points="836.634,-258 855.593,-258 855.593,-261 836.634,-261 		"/>
		<polygon points="305.785,-258 324.744,-258 324.744,-261 305.785,-261 		"/>
		<polygon points="760.798,-258 779.757,-258 779.757,-261 760.798,-261 		"/>
		<polygon points="154.113,-258 173.072,-258 173.072,-261 154.113,-261 		"/>
		<polygon points="571.209,-258 590.168,-258 590.168,-261 571.209,-261 		"/>
		<polygon points="381.62,-258 400.579,-258 400.579,-261 381.62,-261 		"/>
		<polygon points="495.374,-258 514.333,-258 514.333,-261 495.374,-261 		"/>
		<polygon points="457.456,-258 476.415,-258 476.415,-261 457.456,-261 		"/>
		<polygon points="533.292,-258 552.25,-258 552.25,-261 533.292,-261 		"/>
		<polygon points="343.703,-258 362.661,-258 362.661,-261 343.703,-261 		"/>
		<polygon points="912.469,-258 931.428,-258 931.428,-261 912.469,-261 		"/>
		<polygon points="229.949,-258 248.908,-258 248.908,-261 229.949,-261 		"/>
		<polygon points="988.305,-258 1007.264,-258 1007.264,-261 988.305,-261 		"/>
		<polygon points="647.045,-258 666.004,-258 666.004,-261 647.045,-261 		"/>
		<polygon points="798.716,-258 817.675,-258 817.675,-261 798.716,-261 		"/>
		<polygon points="192.031,-258 210.99,-258 210.99,-261 192.031,-261 		"/>
		<polygon points="1026.223,-258 1045.182,-258 1045.182,-261 1026.223,-261 		"/>
		<polygon points="609.127,-258 628.086,-258 628.086,-261 609.127,-261 		"/>
		<polygon points="950.387,-258 969.346,-258 969.346,-261 950.387,-261 		"/>
		<polygon points="684.963,-258 703.922,-258 703.922,-261 684.963,-261 		"/>
		<polygon points="722.881,-258 741.839,-258 741.839,-261 722.881,-261 		"/>
		<polygon points="419.538,-258 438.497,-258 438.497,-261 419.538,-261 		"/>
		<polygon points="609.127,-87 628.086,-87 628.086,-90 609.127,-90 		"/>
		<polygon points="533.292,-87 552.25,-87 552.25,-90 533.292,-90 		"/>
		<polygon points="1026.223,-87 1045.182,-87 1045.182,-90 1026.223,-90 		"/>
		<polygon points="684.963,-87 703.922,-87 703.922,-90 684.963,-90 		"/>
		<polygon points="647.045,-87 666.004,-87 666.004,-90 647.045,-90 		"/>
		<polygon points="571.209,-87 590.168,-87 590.168,-90 571.209,-90 		"/>
		<polygon points="419.538,-87 426.647,-87 426.647,-78.63 429.647,-78.63 429.647,-87 438.497,-87 438.497,-90 429.647,-90 
			429.647,-97.59 426.647,-97.59 426.647,-90 419.538,-90 		"/>
		<polygon points="457.456,-87 476.415,-87 476.415,-90 457.456,-90 		"/>
		<polygon points="495.374,-87 514.333,-87 514.333,-90 495.374,-90 		"/>
		<polygon points="798.716,-87 817.675,-87 817.675,-90 798.716,-90 		"/>
		<polygon points="836.634,-87 855.593,-87 855.593,-90 836.634,-90 		"/>
		<polygon points="722.881,-87 741.839,-87 741.839,-90 722.881,-90 		"/>
		<polygon points="874.552,-87 893.511,-87 893.511,-90 874.552,-90 		"/>
		<polygon points="760.798,-87 766.647,-87 766.647,-78.63 769.647,-78.63 769.647,-87 779.757,-87 779.757,-90 769.647,-90 
			769.647,-97.59 766.647,-97.59 766.647,-90 760.798,-90 		"/>
		<polygon points="343.703,-87 362.661,-87 362.661,-90 343.703,-90 		"/>
		<polygon points="988.305,-87 1007.264,-87 1007.264,-90 988.305,-90 		"/>
		<polygon points="950.387,-87 969.346,-87 969.346,-90 950.387,-90 		"/>
		<polygon points="912.469,-87 931.428,-87 931.428,-90 912.469,-90 		"/>
		<polygon points="381.62,-87 400.579,-87 400.579,-90 381.62,-90 		"/>
		<polygon points="1064.14,-87 1083.099,-87 1083.099,-90 1064.14,-90 		"/>
		<polygon points="21.401,-87 21.401,-90 3.147,-90 3.147,-87 		"/>
		<polygon points="1102.058,-87 1109.647,-87 1109.647,-78.63 1112.647,-78.63 1112.647,-87 1121.017,-87 1121.017,-90 
			1112.647,-90 1112.647,-97.59 1109.647,-97.59 1109.647,-90 1102.058,-90 		"/>
		<polygon points="1177.894,-87 1196.853,-87 1196.853,-90 1177.894,-90 		"/>
		<polygon points="1139.976,-87 1158.935,-87 1158.935,-90 1139.976,-90 		"/>
		<polygon points="40.36,-87 59.319,-87 59.319,-90 40.36,-90 		"/>
		<polygon points="78.278,-87 86.647,-87 86.647,-78.63 89.647,-78.63 89.647,-87 97.236,-87 97.236,-90 89.647,-90 89.647,-97.59 
			86.647,-97.59 86.647,-90 78.278,-90 		"/>
		<polygon points="305.785,-87 324.744,-87 324.744,-90 305.785,-90 		"/>
		<polygon points="267.867,-87 286.826,-87 286.826,-90 267.867,-90 		"/>
		<polygon points="116.195,-87 135.154,-87 135.154,-90 116.195,-90 		"/>
		<polygon points="192.031,-87 210.99,-87 210.99,-90 192.031,-90 		"/>
		<polygon points="154.113,-87 173.072,-87 173.072,-90 154.113,-90 		"/>
		<polygon points="229.949,-87 248.908,-87 248.908,-90 229.949,-90 		"/>
		<polygon points="1109.647,-950.739 1112.647,-950.739 1112.647,-969.698 1109.647,-969.698 		"/>
		<polygon points="1112.647,-1045.534 1109.647,-1045.534 1109.647,-1026.575 1112.647,-1026.575 		"/>
		<polygon points="1112.647,-1083.452 1109.647,-1083.452 1109.647,-1064.493 1112.647,-1064.493 		"/>
		<polygon points="1112.647,-855.944 1109.647,-855.944 1109.647,-836.986 1112.647,-836.986 		"/>
		<polygon points="1112.647,-1197.205 1109.647,-1197.205 1109.647,-1178.246 1112.647,-1178.246 		"/>
		<polygon points="1109.647,-1113 1102.058,-1113 1102.058,-1110 1109.647,-1110 1109.647,-1102.411 1112.647,-1102.411 
			1112.647,-1110 1121.017,-1110 1121.017,-1113 1112.647,-1113 1112.647,-1121.369 1109.647,-1121.369 		"/>
		<polygon points="1112.647,-1007.616 1109.647,-1007.616 1109.647,-988.657 1112.647,-988.657 		"/>
		<polygon points="1109.647,-1140.328 1112.647,-1140.328 1112.647,-1159.287 1109.647,-1159.287 		"/>
		<polygon points="1112.647,-893.862 1109.647,-893.862 1109.647,-874.903 1112.647,-874.903 		"/>
		<polygon points="1109.647,-799.068 1112.647,-799.068 1112.647,-818.027 1109.647,-818.027 		"/>
		<polygon points="1109.647,-457.808 1112.647,-457.808 1112.647,-476.766 1109.647,-476.766 		"/>
		<polygon points="1112.647,-211.342 1109.647,-211.342 1109.647,-192.383 1112.647,-192.383 		"/>
		<polygon points="1112.647,-552.603 1109.647,-552.603 1109.647,-533.644 1112.647,-533.644 		"/>
		<polygon points="1112.647,-173.424 1109.647,-173.424 1109.647,-154.465 1112.647,-154.465 		"/>
		<polygon points="1112.647,-514.684 1109.647,-514.684 1109.647,-495.725 1112.647,-495.725 		"/>
		<polygon points="1109.647,-116.549 1112.647,-116.549 1112.647,-135.507 1109.647,-135.507 		"/>
		<polygon points="1112.647,-590.52 1109.647,-590.52 1109.647,-571.562 1112.647,-571.562 		"/>
		<polygon points="1112.647,-363.013 1109.647,-363.013 1109.647,-344.054 1112.647,-344.054 		"/>
		<polygon points="1109.647,-268.22 1112.647,-268.22 1112.647,-287.178 1109.647,-287.178 		"/>
		<polygon points="1112.647,-325.095 1109.647,-325.095 1109.647,-306.136 1112.647,-306.136 		"/>
		<polygon points="1112.647,-400.932 1109.647,-400.932 1109.647,-381.972 1112.647,-381.972 		"/>
		<polygon points="1112.647,-931.78 1109.647,-931.78 1109.647,-912.821 1112.647,-912.821 		"/>
		<polygon points="1112.647,-704.273 1109.647,-704.273 1109.647,-685.314 1112.647,-685.314 		"/>
		<polygon points="1109.647,-609.479 1112.647,-609.479 1112.647,-628.438 1109.647,-628.438 		"/>
		<polygon points="1112.647,-666.355 1109.647,-666.355 1109.647,-647.396 1112.647,-647.396 		"/>
		<polygon points="1112.647,-59.671 1109.647,-59.671 1109.647,-40.712 1112.647,-40.712 		"/>
		<polygon points="1112.647,-742.191 1109.647,-742.191 1109.647,-723.232 1112.647,-723.232 		"/>
		<polygon points="1109.647,-2.794 1112.647,-2.794 1112.647,-21.753 1109.647,-21.753 		"/>
		<polygon points="1112.647,-249.261 1109.647,-249.261 1109.647,-230.301 1112.647,-230.301 		"/>
		<polygon points="938.647,-457.808 941.647,-457.808 941.647,-476.766 938.647,-476.766 		"/>
		<polygon points="938.647,-306.136 941.647,-306.136 941.647,-325.095 938.647,-325.095 		"/>
		<polygon points="938.647,-381.972 941.647,-381.972 941.647,-400.932 938.647,-400.932 		"/>
		<polygon points="938.647,-344.054 941.647,-344.054 941.647,-363.013 938.647,-363.013 		"/>
		<polygon points="938.647,-419.891 941.647,-419.891 941.647,-438.849 938.647,-438.849 		"/>
		<polygon points="938.647,-495.725 941.647,-495.725 941.647,-514.684 938.647,-514.684 		"/>
		<polygon points="938.647,-571.562 941.647,-571.562 941.647,-590.52 938.647,-590.52 		"/>
		<polygon points="938.647,-533.644 941.647,-533.644 941.647,-552.603 938.647,-552.603 		"/>
		<polygon points="938.647,-116.549 941.647,-116.549 941.647,-135.507 938.647,-135.507 		"/>
		<polygon points="938.647,-609.479 941.647,-609.479 941.647,-628.438 938.647,-628.438 		"/>
		<polygon points="938.647,-154.465 941.647,-154.465 941.647,-173.424 938.647,-173.424 		"/>
		<polygon points="938.647,-2.794 941.647,-2.794 941.647,-21.753 938.647,-21.753 		"/>
		<polygon points="938.647,-78.63 941.647,-78.63 941.647,-97.59 938.647,-97.59 		"/>
		<polygon points="938.647,-40.712 941.647,-40.712 941.647,-59.671 938.647,-59.671 		"/>
		<polygon points="938.647,-268.22 941.647,-268.22 941.647,-287.178 938.647,-287.178 		"/>
		<polygon points="938.647,-230.301 941.647,-230.301 941.647,-249.261 938.647,-249.261 		"/>
		<polygon points="938.647,-192.383 941.647,-192.383 941.647,-211.342 938.647,-211.342 		"/>
		<polygon points="938.647,-988.657 941.647,-988.657 941.647,-1007.616 938.647,-1007.616 		"/>
		<polygon points="938.647,-647.396 941.647,-647.396 941.647,-666.355 938.647,-666.355 		"/>
		<polygon points="938.647,-950.739 941.647,-950.739 941.647,-969.698 938.647,-969.698 		"/>
		<polygon points="938.647,-1064.493 941.647,-1064.493 941.647,-1083.452 938.647,-1083.452 		"/>
		<polygon points="938.647,-1026.575 941.647,-1026.575 941.647,-1045.534 938.647,-1045.534 		"/>
		<polygon points="938.647,-1140.328 941.647,-1140.328 941.647,-1159.287 938.647,-1159.287 		"/>
		<polygon points="938.647,-1102.411 941.647,-1102.411 941.647,-1121.369 938.647,-1121.369 		"/>
		<polygon points="941.647,-1197.205 938.647,-1197.205 938.647,-1178.246 941.647,-1178.246 		"/>
		<polygon points="938.647,-912.821 941.647,-912.821 941.647,-931.78 938.647,-931.78 		"/>
		<polygon points="938.647,-761.15 941.647,-761.15 941.647,-780.109 938.647,-780.109 		"/>
		<polygon points="938.647,-723.232 941.647,-723.232 941.647,-742.191 938.647,-742.191 		"/>
		<polygon points="938.647,-874.903 941.647,-874.903 941.647,-893.862 938.647,-893.862 		"/>
		<polygon points="938.647,-685.314 941.647,-685.314 941.647,-704.273 938.647,-704.273 		"/>
		<polygon points="938.647,-836.986 941.647,-836.986 941.647,-855.944 938.647,-855.944 		"/>
		<polygon points="938.647,-799.068 941.647,-799.068 941.647,-818.027 938.647,-818.027 		"/>
		<polygon points="766.647,-799.068 769.647,-799.068 769.647,-818.027 766.647,-818.027 		"/>
		<polygon points="769.647,-893.862 766.647,-893.862 766.647,-874.903 769.647,-874.903 		"/>
		<polygon points="769.647,-931.78 766.647,-931.78 766.647,-912.821 769.647,-912.821 		"/>
		<polygon points="769.647,-855.944 766.647,-855.944 766.647,-836.986 769.647,-836.986 		"/>
		<polygon points="769.647,-704.273 766.647,-704.273 766.647,-685.314 769.647,-685.314 		"/>
		<polygon points="769.647,-666.355 766.647,-666.355 766.647,-647.396 769.647,-647.396 		"/>
		<polygon points="766.647,-609.479 769.647,-609.479 769.647,-628.438 766.647,-628.438 		"/>
		<polygon points="769.647,-1197.205 766.647,-1197.205 766.647,-1178.246 769.647,-1178.246 		"/>
		<polygon points="766.647,-1113 760.798,-1113 760.798,-1110 766.647,-1110 766.647,-1102.411 769.647,-1102.411 769.647,-1110 
			779.757,-1110 779.757,-1113 769.647,-1113 769.647,-1121.369 766.647,-1121.369 		"/>
		<polygon points="769.647,-1083.452 766.647,-1083.452 766.647,-1064.493 769.647,-1064.493 		"/>
		<polygon points="766.647,-1140.328 769.647,-1140.328 769.647,-1159.287 766.647,-1159.287 		"/>
		<polygon points="769.647,-1045.534 766.647,-1045.534 766.647,-1026.575 769.647,-1026.575 		"/>
		<polygon points="769.647,-1007.616 766.647,-1007.616 766.647,-988.657 769.647,-988.657 		"/>
		<polygon points="766.647,-950.739 769.647,-950.739 769.647,-969.698 766.647,-969.698 		"/>
		<polygon points="766.647,-457.808 769.647,-457.808 769.647,-476.766 766.647,-476.766 		"/>
		<polygon points="769.647,-211.342 766.647,-211.342 766.647,-192.383 769.647,-192.383 		"/>
		<polygon points="769.647,-173.424 766.647,-173.424 766.647,-154.465 769.647,-154.465 		"/>
		<polygon points="766.647,-116.549 769.647,-116.549 769.647,-135.507 766.647,-135.507 		"/>
		<polygon points="769.647,-249.261 766.647,-249.261 766.647,-230.301 769.647,-230.301 		"/>
		<polygon points="769.647,-59.671 766.647,-59.671 766.647,-40.712 769.647,-40.712 		"/>
		<polygon points="769.647,-742.191 766.647,-742.191 766.647,-723.232 769.647,-723.232 		"/>
		<polygon points="766.647,-2.794 769.647,-2.794 769.647,-21.753 766.647,-21.753 		"/>
		<polygon points="769.647,-590.52 766.647,-590.52 766.647,-571.562 769.647,-571.562 		"/>
		<polygon points="769.647,-514.684 766.647,-514.684 766.647,-495.725 769.647,-495.725 		"/>
		<polygon points="769.647,-325.095 766.647,-325.095 766.647,-306.136 769.647,-306.136 		"/>
		<polygon points="769.647,-400.932 766.647,-400.932 766.647,-381.972 769.647,-381.972 		"/>
		<polygon points="769.647,-552.603 766.647,-552.603 766.647,-533.644 769.647,-533.644 		"/>
		<polygon points="766.647,-268.22 769.647,-268.22 769.647,-287.178 766.647,-287.178 		"/>
		<polygon points="769.647,-363.013 766.647,-363.013 766.647,-344.054 769.647,-344.054 		"/>
		<polygon points="596.647,-495.725 599.647,-495.725 599.647,-514.684 596.647,-514.684 		"/>
		<polygon points="596.647,-1140.328 599.647,-1140.328 599.647,-1159.287 596.647,-1159.287 		"/>
		<polygon points="596.647,-761.15 599.647,-761.15 599.647,-780.109 596.647,-780.109 		"/>
		<polygon points="596.647,-874.903 599.647,-874.903 599.647,-893.862 596.647,-893.862 		"/>
		<polygon points="596.647,-836.986 599.647,-836.986 599.647,-855.944 596.647,-855.944 		"/>
		<polygon points="596.647,-609.479 599.647,-609.479 599.647,-628.438 596.647,-628.438 		"/>
		<polygon points="596.647,-647.396 599.647,-647.396 599.647,-666.355 596.647,-666.355 		"/>
		<polygon points="596.647,-685.314 599.647,-685.314 599.647,-704.273 596.647,-704.273 		"/>
		<polygon points="596.647,-723.232 599.647,-723.232 599.647,-742.191 596.647,-742.191 		"/>
		<polygon points="596.647,-1102.411 599.647,-1102.411 599.647,-1121.369 596.647,-1121.369 		"/>
		<polygon points="596.647,-912.821 599.647,-912.821 599.647,-931.78 596.647,-931.78 		"/>
		<polygon points="599.647,-1197.205 596.647,-1197.205 596.647,-1178.246 599.647,-1178.246 		"/>
		<polygon points="596.647,-1064.493 599.647,-1064.493 599.647,-1083.452 596.647,-1083.452 		"/>
		<polygon points="596.647,-950.739 599.647,-950.739 599.647,-969.698 596.647,-969.698 		"/>
		<polygon points="596.647,-988.657 599.647,-988.657 599.647,-1007.616 596.647,-1007.616 		"/>
		<polygon points="596.647,-1026.575 599.647,-1026.575 599.647,-1045.534 596.647,-1045.534 		"/>
		<polygon points="596.647,-799.068 599.647,-799.068 599.647,-818.027 596.647,-818.027 		"/>
		<polygon points="596.647,-154.465 599.647,-154.465 599.647,-173.424 596.647,-173.424 		"/>
		<polygon points="596.647,-571.562 599.647,-571.562 599.647,-590.52 596.647,-590.52 		"/>
		<polygon points="596.647,-192.383 599.647,-192.383 599.647,-211.342 596.647,-211.342 		"/>
		<polygon points="596.647,-40.712 599.647,-40.712 599.647,-59.671 596.647,-59.671 		"/>
		<polygon points="596.647,-2.794 599.647,-2.794 599.647,-21.753 596.647,-21.753 		"/>
		<polygon points="596.647,-230.301 599.647,-230.301 599.647,-249.261 596.647,-249.261 		"/>
		<polygon points="596.647,-78.63 599.647,-78.63 599.647,-97.59 596.647,-97.59 		"/>
		<polygon points="596.647,-116.549 599.647,-116.549 599.647,-135.507 596.647,-135.507 		"/>
		<polygon points="596.647,-457.808 599.647,-457.808 599.647,-476.766 596.647,-476.766 		"/>
		<polygon points="596.647,-533.644 599.647,-533.644 599.647,-552.603 596.647,-552.603 		"/>
		<polygon points="596.647,-268.22 599.647,-268.22 599.647,-287.178 596.647,-287.178 		"/>
		<polygon points="596.647,-419.891 599.647,-419.891 599.647,-438.849 596.647,-438.849 		"/>
		<polygon points="596.647,-381.972 599.647,-381.972 599.647,-400.932 596.647,-400.932 		"/>
		<polygon points="596.647,-344.054 599.647,-344.054 599.647,-363.013 596.647,-363.013 		"/>
		<polygon points="596.647,-306.136 599.647,-306.136 599.647,-325.095 596.647,-325.095 		"/>
		<polygon points="429.647,-666.355 426.647,-666.355 426.647,-647.396 429.647,-647.396 		"/>
		<polygon points="426.647,-1140.328 429.647,-1140.328 429.647,-1159.287 426.647,-1159.287 		"/>
		<polygon points="429.647,-514.684 426.647,-514.684 426.647,-495.725 429.647,-495.725 		"/>
		<polygon points="426.647,-609.479 429.647,-609.479 429.647,-628.438 426.647,-628.438 		"/>
		<polygon points="429.647,-931.78 426.647,-931.78 426.647,-912.821 429.647,-912.821 		"/>
		<polygon points="426.647,-1113 419.538,-1113 419.538,-1110 426.647,-1110 426.647,-1102.411 429.647,-1102.411 429.647,-1110 
			438.497,-1110 438.497,-1113 429.647,-1113 429.647,-1121.369 426.647,-1121.369 		"/>
		<polygon points="426.647,-950.739 429.647,-950.739 429.647,-969.698 426.647,-969.698 		"/>
		<polygon points="429.647,-1007.616 426.647,-1007.616 426.647,-988.657 429.647,-988.657 		"/>
		<polygon points="429.647,-1197.205 426.647,-1197.205 426.647,-1178.246 429.647,-1178.246 		"/>
		<polygon points="426.647,-799.068 429.647,-799.068 429.647,-818.027 426.647,-818.027 		"/>
		<polygon points="429.647,-893.862 426.647,-893.862 426.647,-874.903 429.647,-874.903 		"/>
		<polygon points="429.647,-855.944 426.647,-855.944 426.647,-836.986 429.647,-836.986 		"/>
		<polygon points="429.647,-1045.534 426.647,-1045.534 426.647,-1026.575 429.647,-1026.575 		"/>
		<polygon points="429.647,-1083.452 426.647,-1083.452 426.647,-1064.493 429.647,-1064.493 		"/>
		<polygon points="426.647,-2.794 429.647,-2.794 429.647,-21.753 426.647,-21.753 		"/>
		<polygon points="429.647,-59.671 426.647,-59.671 426.647,-40.712 429.647,-40.712 		"/>
		<polygon points="426.647,-268.22 429.647,-268.22 429.647,-287.178 426.647,-287.178 		"/>
		<polygon points="429.647,-552.603 426.647,-552.603 426.647,-533.644 429.647,-533.644 		"/>
		<polygon points="429.647,-742.191 426.647,-742.191 426.647,-723.232 429.647,-723.232 		"/>
		<polygon points="426.647,-457.808 429.647,-457.808 429.647,-476.766 426.647,-476.766 		"/>
		<polygon points="429.647,-363.013 426.647,-363.013 426.647,-344.054 429.647,-344.054 		"/>
		<polygon points="429.647,-325.095 426.647,-325.095 426.647,-306.136 429.647,-306.136 		"/>
		<polygon points="429.647,-211.342 426.647,-211.342 426.647,-192.383 429.647,-192.383 		"/>
		<polygon points="426.647,-116.549 429.647,-116.549 429.647,-135.507 426.647,-135.507 		"/>
		<polygon points="429.647,-249.261 426.647,-249.261 426.647,-230.301 429.647,-230.301 		"/>
		<polygon points="429.647,-400.932 426.647,-400.932 426.647,-381.972 429.647,-381.972 		"/>
		<polygon points="429.647,-704.273 426.647,-704.273 426.647,-685.314 429.647,-685.314 		"/>
		<polygon points="429.647,-173.424 426.647,-173.424 426.647,-154.465 429.647,-154.465 		"/>
		<polygon points="429.647,-590.52 426.647,-590.52 426.647,-571.562 429.647,-571.562 		"/>
		<polygon points="257.647,-950.739 260.647,-950.739 260.647,-969.698 257.647,-969.698 		"/>
		<polygon points="257.647,-1026.575 260.647,-1026.575 260.647,-1045.534 257.647,-1045.534 		"/>
		<polygon points="257.647,-988.657 260.647,-988.657 260.647,-1007.616 257.647,-1007.616 		"/>
		<polygon points="257.647,-1064.493 260.647,-1064.493 260.647,-1083.452 257.647,-1083.452 		"/>
		<polygon points="257.647,-685.314 260.647,-685.314 260.647,-704.273 257.647,-704.273 		"/>
		<polygon points="257.647,-2.794 260.647,-2.794 260.647,-21.753 257.647,-21.753 		"/>
		<polygon points="257.647,-1140.328 260.647,-1140.328 260.647,-1159.287 257.647,-1159.287 		"/>
		<polygon points="260.647,-1197.205 257.647,-1197.205 257.647,-1178.246 260.647,-1178.246 		"/>
		<polygon points="257.647,-723.232 260.647,-723.232 260.647,-742.191 257.647,-742.191 		"/>
		<polygon points="257.647,-1102.411 260.647,-1102.411 260.647,-1121.369 257.647,-1121.369 		"/>
		<polygon points="257.647,-761.15 260.647,-761.15 260.647,-780.109 257.647,-780.109 		"/>
		<polygon points="257.647,-609.479 260.647,-609.479 260.647,-628.438 257.647,-628.438 		"/>
		<polygon points="257.647,-836.986 260.647,-836.986 260.647,-855.944 257.647,-855.944 		"/>
		<polygon points="257.647,-874.903 260.647,-874.903 260.647,-893.862 257.647,-893.862 		"/>
		<polygon points="257.647,-799.068 260.647,-799.068 260.647,-818.027 257.647,-818.027 		"/>
		<polygon points="257.647,-912.821 260.647,-912.821 260.647,-931.78 257.647,-931.78 		"/>
		<polygon points="257.647,-647.396 260.647,-647.396 260.647,-666.355 257.647,-666.355 		"/>
		<polygon points="257.647,-230.301 260.647,-230.301 260.647,-249.261 257.647,-249.261 		"/>
		<polygon points="257.647,-192.383 260.647,-192.383 260.647,-211.342 257.647,-211.342 		"/>
		<polygon points="257.647,-268.22 260.647,-268.22 260.647,-287.178 257.647,-287.178 		"/>
		<polygon points="257.647,-78.63 260.647,-78.63 260.647,-97.59 257.647,-97.59 		"/>
		<polygon points="257.647,-40.712 260.647,-40.712 260.647,-59.671 257.647,-59.671 		"/>
		<polygon points="257.647,-116.549 260.647,-116.549 260.647,-135.507 257.647,-135.507 		"/>
		<polygon points="257.647,-306.136 260.647,-306.136 260.647,-325.095 257.647,-325.095 		"/>
		<polygon points="257.647,-154.465 260.647,-154.465 260.647,-173.424 257.647,-173.424 		"/>
		<polygon points="257.647,-533.644 260.647,-533.644 260.647,-552.603 257.647,-552.603 		"/>
		<polygon points="257.647,-495.725 260.647,-495.725 260.647,-514.684 257.647,-514.684 		"/>
		<polygon points="257.647,-571.562 260.647,-571.562 260.647,-590.52 257.647,-590.52 		"/>
		<polygon points="257.647,-419.891 260.647,-419.891 260.647,-438.849 257.647,-438.849 		"/>
		<polygon points="257.647,-344.054 260.647,-344.054 260.647,-363.013 257.647,-363.013 		"/>
		<polygon points="257.647,-381.972 260.647,-381.972 260.647,-400.932 257.647,-400.932 		"/>
		<polygon points="257.647,-457.808 260.647,-457.808 260.647,-476.766 257.647,-476.766 		"/>
		<polygon points="86.647,-950.739 89.647,-950.739 89.647,-969.698 86.647,-969.698 		"/>
		<polygon points="89.647,-1197.205 86.647,-1197.205 86.647,-1178.246 89.647,-1178.246 		"/>
		<polygon points="89.647,-1007.616 86.647,-1007.616 86.647,-988.657 89.647,-988.657 		"/>
		<polygon points="86.647,-1113 78.278,-1113 78.278,-1110 86.647,-1110 86.647,-1102.411 89.647,-1102.411 89.647,-1110 
			97.236,-1110 97.236,-1113 89.647,-1113 89.647,-1121.369 86.647,-1121.369 		"/>
		<polygon points="89.647,-1083.452 86.647,-1083.452 86.647,-1064.493 89.647,-1064.493 		"/>
		<polygon points="86.647,-799.068 89.647,-799.068 89.647,-818.027 86.647,-818.027 		"/>
		<polygon points="89.647,-1045.534 86.647,-1045.534 86.647,-1026.575 89.647,-1026.575 		"/>
		<polygon points="89.647,-855.944 86.647,-855.944 86.647,-836.986 89.647,-836.986 		"/>
		<polygon points="89.647,-173.424 86.647,-173.424 86.647,-154.465 89.647,-154.465 		"/>
		<polygon points="86.647,-116.549 89.647,-116.549 89.647,-135.507 86.647,-135.507 		"/>
		<polygon points="89.647,-400.932 86.647,-400.932 86.647,-381.972 89.647,-381.972 		"/>
		<polygon points="89.647,-363.013 86.647,-363.013 86.647,-344.054 89.647,-344.054 		"/>
		<polygon points="89.647,-325.095 86.647,-325.095 86.647,-306.136 89.647,-306.136 		"/>
		<polygon points="86.647,-268.22 89.647,-268.22 89.647,-287.178 86.647,-287.178 		"/>
		<polygon points="89.647,-59.671 86.647,-59.671 86.647,-40.712 89.647,-40.712 		"/>
		<polygon points="86.647,-1140.328 89.647,-1140.328 89.647,-1159.287 86.647,-1159.287 		"/>
		<polygon points="89.647,-590.52 86.647,-590.52 86.647,-571.562 89.647,-571.562 		"/>
		<polygon points="89.647,-211.342 86.647,-211.342 86.647,-192.383 89.647,-192.383 		"/>
		<polygon points="89.647,-249.261 86.647,-249.261 86.647,-230.301 89.647,-230.301 		"/>
		<polygon points="86.647,-2.794 89.647,-2.794 89.647,-21.753 86.647,-21.753 		"/>
		<polygon points="89.647,-931.78 86.647,-931.78 86.647,-912.821 89.647,-912.821 		"/>
		<polygon points="89.647,-666.355 86.647,-666.355 86.647,-647.396 89.647,-647.396 		"/>
		<polygon points="89.647,-893.862 86.647,-893.862 86.647,-874.903 89.647,-874.903 		"/>
		<polygon points="86.647,-609.479 89.647,-609.479 89.647,-628.438 86.647,-628.438 		"/>
		<polygon points="89.647,-742.191 86.647,-742.191 86.647,-723.232 89.647,-723.232 		"/>
		<polygon points="86.647,-457.808 89.647,-457.808 89.647,-476.766 86.647,-476.766 		"/>
		<polygon points="89.647,-514.684 86.647,-514.684 86.647,-495.725 89.647,-495.725 		"/>
		<polygon points="89.647,-552.603 86.647,-552.603 86.647,-533.644 89.647,-533.644 		"/>
		<polygon points="89.647,-704.273 86.647,-704.273 86.647,-685.314 89.647,-685.314 		"/>
	</g>
</pattern>
<g id="Background">
</g>
<g id="Pattern">
	<pattern  id="SVGID_1_" xlink:href="#New_Pattern" patternTransform="matrix(0.7867 0 0 0.7867 952.708 -250.2407)">
	</pattern>
	<rect fill="url(#SVGID_1_)" width="1200" height="800"/>
</g>
</svg>
